<mxfile host="app.diagrams.net" modified="2021-09-13T05:39:42.778Z" agent="5.0 (X11; Linux x86_64) AppleWebKit/537.36 (KHTML, like Gecko) Chrome/93.0.4577.63 Safari/537.36" etag="V9vRJONwuy5sHxFzzlb-" version="15.2.1" type="github">
  <diagram id="EQBp6d7HII66UAh5lN5E" name="Page-1">
    <mxGraphModel dx="1848" dy="614" grid="1" gridSize="10" guides="1" tooltips="1" connect="1" arrows="1" fold="1" page="1" pageScale="1" pageWidth="827" pageHeight="1169" math="0" shadow="0">
      <root>
        <mxCell id="0" />
        <mxCell id="1" parent="0" />
        <mxCell id="BVoDOSrA4ISElf-6tjmI-1" value="Motel" style="swimlane;fontStyle=1;align=center;verticalAlign=top;childLayout=stackLayout;horizontal=1;startSize=26;horizontalStack=0;resizeParent=1;resizeParentMax=0;resizeLast=0;collapsible=1;marginBottom=0;" vertex="1" parent="1">
          <mxGeometry x="90" y="55" width="160" height="134" as="geometry" />
        </mxCell>
        <mxCell id="BVoDOSrA4ISElf-6tjmI-2" value="- id: String!&#xa;- name: String!&#xa;- address: String&#xa;- description: String" style="text;strokeColor=none;fillColor=none;align=left;verticalAlign=top;spacingLeft=4;spacingRight=4;overflow=hidden;rotatable=0;points=[[0,0.5],[1,0.5]];portConstraint=eastwest;" vertex="1" parent="BVoDOSrA4ISElf-6tjmI-1">
          <mxGeometry y="26" width="160" height="74" as="geometry" />
        </mxCell>
        <mxCell id="BVoDOSrA4ISElf-6tjmI-3" value="" style="line;strokeWidth=1;fillColor=none;align=left;verticalAlign=middle;spacingTop=-1;spacingLeft=3;spacingRight=3;rotatable=0;labelPosition=right;points=[];portConstraint=eastwest;" vertex="1" parent="BVoDOSrA4ISElf-6tjmI-1">
          <mxGeometry y="100" width="160" height="8" as="geometry" />
        </mxCell>
        <mxCell id="BVoDOSrA4ISElf-6tjmI-4" value="+ method(type): type" style="text;strokeColor=none;fillColor=none;align=left;verticalAlign=top;spacingLeft=4;spacingRight=4;overflow=hidden;rotatable=0;points=[[0,0.5],[1,0.5]];portConstraint=eastwest;" vertex="1" parent="BVoDOSrA4ISElf-6tjmI-1">
          <mxGeometry y="108" width="160" height="26" as="geometry" />
        </mxCell>
        <mxCell id="BVoDOSrA4ISElf-6tjmI-5" value="Image" style="swimlane;fontStyle=1;align=center;verticalAlign=top;childLayout=stackLayout;horizontal=1;startSize=26;horizontalStack=0;resizeParent=1;resizeParentMax=0;resizeLast=0;collapsible=1;marginBottom=0;" vertex="1" parent="1">
          <mxGeometry x="430" y="50" width="160" height="144" as="geometry" />
        </mxCell>
        <mxCell id="BVoDOSrA4ISElf-6tjmI-6" value="- id: String!&#xa;- data: String!" style="text;strokeColor=none;fillColor=none;align=left;verticalAlign=top;spacingLeft=4;spacingRight=4;overflow=hidden;rotatable=0;points=[[0,0.5],[1,0.5]];portConstraint=eastwest;" vertex="1" parent="BVoDOSrA4ISElf-6tjmI-5">
          <mxGeometry y="26" width="160" height="84" as="geometry" />
        </mxCell>
        <mxCell id="BVoDOSrA4ISElf-6tjmI-7" value="" style="line;strokeWidth=1;fillColor=none;align=left;verticalAlign=middle;spacingTop=-1;spacingLeft=3;spacingRight=3;rotatable=0;labelPosition=right;points=[];portConstraint=eastwest;" vertex="1" parent="BVoDOSrA4ISElf-6tjmI-5">
          <mxGeometry y="110" width="160" height="8" as="geometry" />
        </mxCell>
        <mxCell id="BVoDOSrA4ISElf-6tjmI-8" value="+ method(type): type" style="text;strokeColor=none;fillColor=none;align=left;verticalAlign=top;spacingLeft=4;spacingRight=4;overflow=hidden;rotatable=0;points=[[0,0.5],[1,0.5]];portConstraint=eastwest;" vertex="1" parent="BVoDOSrA4ISElf-6tjmI-5">
          <mxGeometry y="118" width="160" height="26" as="geometry" />
        </mxCell>
        <mxCell id="BVoDOSrA4ISElf-6tjmI-9" style="edgeStyle=orthogonalEdgeStyle;rounded=0;orthogonalLoop=1;jettySize=auto;html=1;exitX=1;exitY=0.5;exitDx=0;exitDy=0;entryX=0;entryY=0.5;entryDx=0;entryDy=0;endArrow=none;endFill=0;startArrow=classic;startFill=1;" edge="1" parent="1" source="BVoDOSrA4ISElf-6tjmI-2" target="BVoDOSrA4ISElf-6tjmI-6">
          <mxGeometry relative="1" as="geometry" />
        </mxCell>
        <mxCell id="BVoDOSrA4ISElf-6tjmI-10" value="1" style="edgeLabel;html=1;align=center;verticalAlign=middle;resizable=0;points=[];" vertex="1" connectable="0" parent="BVoDOSrA4ISElf-6tjmI-9">
          <mxGeometry x="-0.7315" y="2" relative="1" as="geometry">
            <mxPoint as="offset" />
          </mxGeometry>
        </mxCell>
        <mxCell id="BVoDOSrA4ISElf-6tjmI-11" value="*" style="edgeLabel;html=1;align=center;verticalAlign=middle;resizable=0;points=[];" vertex="1" connectable="0" parent="BVoDOSrA4ISElf-6tjmI-9">
          <mxGeometry x="0.8148" y="-1" relative="1" as="geometry">
            <mxPoint as="offset" />
          </mxGeometry>
        </mxCell>
        <mxCell id="BVoDOSrA4ISElf-6tjmI-38" style="edgeStyle=orthogonalEdgeStyle;rounded=0;orthogonalLoop=1;jettySize=auto;html=1;exitX=1.007;exitY=0.91;exitDx=0;exitDy=0;entryX=0;entryY=0.5;entryDx=0;entryDy=0;startArrow=classic;startFill=1;endArrow=none;endFill=0;exitPerimeter=0;" edge="1" parent="1" source="BVoDOSrA4ISElf-6tjmI-13" target="BVoDOSrA4ISElf-6tjmI-34">
          <mxGeometry relative="1" as="geometry" />
        </mxCell>
        <mxCell id="BVoDOSrA4ISElf-6tjmI-41" value="1" style="edgeLabel;html=1;align=center;verticalAlign=middle;resizable=0;points=[];" vertex="1" connectable="0" parent="BVoDOSrA4ISElf-6tjmI-38">
          <mxGeometry x="-0.6785" y="-1" relative="1" as="geometry">
            <mxPoint as="offset" />
          </mxGeometry>
        </mxCell>
        <mxCell id="BVoDOSrA4ISElf-6tjmI-42" value="0,*" style="edgeLabel;html=1;align=center;verticalAlign=middle;resizable=0;points=[];" vertex="1" connectable="0" parent="BVoDOSrA4ISElf-6tjmI-38">
          <mxGeometry x="0.731" y="2" relative="1" as="geometry">
            <mxPoint as="offset" />
          </mxGeometry>
        </mxCell>
        <mxCell id="BVoDOSrA4ISElf-6tjmI-12" value="MotelRoom" style="swimlane;fontStyle=1;align=center;verticalAlign=top;childLayout=stackLayout;horizontal=1;startSize=26;horizontalStack=0;resizeParent=1;resizeParentMax=0;resizeLast=0;collapsible=1;marginBottom=0;" vertex="1" parent="1">
          <mxGeometry x="90" y="285" width="230" height="214" as="geometry" />
        </mxCell>
        <mxCell id="BVoDOSrA4ISElf-6tjmI-13" value="- id: String&#xa;- name: String!&#xa;- active: boolean!&#xa;- area: double&#xa;- description: String" style="text;strokeColor=none;fillColor=none;align=left;verticalAlign=top;spacingLeft=4;spacingRight=4;overflow=hidden;rotatable=0;points=[[0,0.5],[1,0.5]];portConstraint=eastwest;" vertex="1" parent="BVoDOSrA4ISElf-6tjmI-12">
          <mxGeometry y="26" width="230" height="154" as="geometry" />
        </mxCell>
        <mxCell id="BVoDOSrA4ISElf-6tjmI-14" value="" style="line;strokeWidth=1;fillColor=none;align=left;verticalAlign=middle;spacingTop=-1;spacingLeft=3;spacingRight=3;rotatable=0;labelPosition=right;points=[];portConstraint=eastwest;" vertex="1" parent="BVoDOSrA4ISElf-6tjmI-12">
          <mxGeometry y="180" width="230" height="8" as="geometry" />
        </mxCell>
        <mxCell id="BVoDOSrA4ISElf-6tjmI-15" value="+ method(type): type" style="text;strokeColor=none;fillColor=none;align=left;verticalAlign=top;spacingLeft=4;spacingRight=4;overflow=hidden;rotatable=0;points=[[0,0.5],[1,0.5]];portConstraint=eastwest;" vertex="1" parent="BVoDOSrA4ISElf-6tjmI-12">
          <mxGeometry y="188" width="230" height="26" as="geometry" />
        </mxCell>
        <mxCell id="BVoDOSrA4ISElf-6tjmI-16" style="edgeStyle=orthogonalEdgeStyle;rounded=0;orthogonalLoop=1;jettySize=auto;html=1;exitX=1;exitY=0.5;exitDx=0;exitDy=0;entryX=0.01;entryY=0.696;entryDx=0;entryDy=0;startArrow=classic;startFill=1;endArrow=none;endFill=0;entryPerimeter=0;" edge="1" parent="1" source="BVoDOSrA4ISElf-6tjmI-13" target="BVoDOSrA4ISElf-6tjmI-6">
          <mxGeometry relative="1" as="geometry" />
        </mxCell>
        <mxCell id="BVoDOSrA4ISElf-6tjmI-17" value="1" style="edgeLabel;html=1;align=center;verticalAlign=middle;resizable=0;points=[];" vertex="1" connectable="0" parent="BVoDOSrA4ISElf-6tjmI-16">
          <mxGeometry x="-0.9188" y="-2" relative="1" as="geometry">
            <mxPoint as="offset" />
          </mxGeometry>
        </mxCell>
        <mxCell id="BVoDOSrA4ISElf-6tjmI-18" value="*" style="edgeLabel;html=1;align=center;verticalAlign=middle;resizable=0;points=[];" vertex="1" connectable="0" parent="BVoDOSrA4ISElf-6tjmI-16">
          <mxGeometry x="0.8557" y="-2" relative="1" as="geometry">
            <mxPoint as="offset" />
          </mxGeometry>
        </mxCell>
        <mxCell id="BVoDOSrA4ISElf-6tjmI-19" style="edgeStyle=orthogonalEdgeStyle;rounded=0;orthogonalLoop=1;jettySize=auto;html=1;exitX=0;exitY=0.5;exitDx=0;exitDy=0;entryX=0;entryY=0.5;entryDx=0;entryDy=0;startArrow=classic;startFill=1;endArrow=none;endFill=0;" edge="1" parent="1" source="BVoDOSrA4ISElf-6tjmI-2" target="BVoDOSrA4ISElf-6tjmI-13">
          <mxGeometry relative="1" as="geometry">
            <Array as="points">
              <mxPoint x="40" y="118" />
              <mxPoint x="40" y="373" />
            </Array>
          </mxGeometry>
        </mxCell>
        <mxCell id="BVoDOSrA4ISElf-6tjmI-20" value="1" style="edgeLabel;html=1;align=center;verticalAlign=middle;resizable=0;points=[];" vertex="1" connectable="0" parent="BVoDOSrA4ISElf-6tjmI-19">
          <mxGeometry x="-0.7874" y="-1" relative="1" as="geometry">
            <mxPoint as="offset" />
          </mxGeometry>
        </mxCell>
        <mxCell id="BVoDOSrA4ISElf-6tjmI-21" value="1,*" style="edgeLabel;html=1;align=center;verticalAlign=middle;resizable=0;points=[];" vertex="1" connectable="0" parent="BVoDOSrA4ISElf-6tjmI-19">
          <mxGeometry x="0.8309" y="3" relative="1" as="geometry">
            <mxPoint as="offset" />
          </mxGeometry>
        </mxCell>
        <mxCell id="BVoDOSrA4ISElf-6tjmI-26" style="edgeStyle=orthogonalEdgeStyle;rounded=0;orthogonalLoop=1;jettySize=auto;html=1;exitX=0.5;exitY=0;exitDx=0;exitDy=0;entryX=0.49;entryY=0.987;entryDx=0;entryDy=0;startArrow=classic;startFill=1;endArrow=none;endFill=0;entryPerimeter=0;" edge="1" parent="1" source="BVoDOSrA4ISElf-6tjmI-22" target="BVoDOSrA4ISElf-6tjmI-8">
          <mxGeometry relative="1" as="geometry" />
        </mxCell>
        <mxCell id="BVoDOSrA4ISElf-6tjmI-46" value="1" style="edgeLabel;html=1;align=center;verticalAlign=middle;resizable=0;points=[];" vertex="1" connectable="0" parent="BVoDOSrA4ISElf-6tjmI-26">
          <mxGeometry x="-0.8896" y="1" relative="1" as="geometry">
            <mxPoint as="offset" />
          </mxGeometry>
        </mxCell>
        <mxCell id="BVoDOSrA4ISElf-6tjmI-47" value="*" style="edgeLabel;html=1;align=center;verticalAlign=middle;resizable=0;points=[];" vertex="1" connectable="0" parent="BVoDOSrA4ISElf-6tjmI-26">
          <mxGeometry x="0.8939" y="1" relative="1" as="geometry">
            <mxPoint as="offset" />
          </mxGeometry>
        </mxCell>
        <mxCell id="BVoDOSrA4ISElf-6tjmI-22" value="Person" style="swimlane;fontStyle=1;align=center;verticalAlign=top;childLayout=stackLayout;horizontal=1;startSize=26;horizontalStack=0;resizeParent=1;resizeParentMax=0;resizeLast=0;collapsible=1;marginBottom=0;" vertex="1" parent="1">
          <mxGeometry x="630" y="300" width="160" height="184" as="geometry" />
        </mxCell>
        <mxCell id="BVoDOSrA4ISElf-6tjmI-23" value="- id: String&#xa;- firstName: String&#xa;- lastName: String&#xa;- homeTown: String&#xa;- phoneNumber: String&#xa;- CMND: String&#xa;- description: String" style="text;strokeColor=none;fillColor=none;align=left;verticalAlign=top;spacingLeft=4;spacingRight=4;overflow=hidden;rotatable=0;points=[[0,0.5],[1,0.5]];portConstraint=eastwest;" vertex="1" parent="BVoDOSrA4ISElf-6tjmI-22">
          <mxGeometry y="26" width="160" height="124" as="geometry" />
        </mxCell>
        <mxCell id="BVoDOSrA4ISElf-6tjmI-24" value="" style="line;strokeWidth=1;fillColor=none;align=left;verticalAlign=middle;spacingTop=-1;spacingLeft=3;spacingRight=3;rotatable=0;labelPosition=right;points=[];portConstraint=eastwest;" vertex="1" parent="BVoDOSrA4ISElf-6tjmI-22">
          <mxGeometry y="150" width="160" height="8" as="geometry" />
        </mxCell>
        <mxCell id="BVoDOSrA4ISElf-6tjmI-25" value="+ method(type): type" style="text;strokeColor=none;fillColor=none;align=left;verticalAlign=top;spacingLeft=4;spacingRight=4;overflow=hidden;rotatable=0;points=[[0,0.5],[1,0.5]];portConstraint=eastwest;" vertex="1" parent="BVoDOSrA4ISElf-6tjmI-22">
          <mxGeometry y="158" width="160" height="26" as="geometry" />
        </mxCell>
        <mxCell id="BVoDOSrA4ISElf-6tjmI-33" value="PersonRoom" style="swimlane;fontStyle=1;align=center;verticalAlign=top;childLayout=stackLayout;horizontal=1;startSize=26;horizontalStack=0;resizeParent=1;resizeParentMax=0;resizeLast=0;collapsible=1;marginBottom=0;" vertex="1" parent="1">
          <mxGeometry x="410" y="370" width="160" height="124" as="geometry" />
        </mxCell>
        <mxCell id="BVoDOSrA4ISElf-6tjmI-34" value="- StartDate: Date!&#xa;- endDate: Date" style="text;strokeColor=none;fillColor=none;align=left;verticalAlign=top;spacingLeft=4;spacingRight=4;overflow=hidden;rotatable=0;points=[[0,0.5],[1,0.5]];portConstraint=eastwest;" vertex="1" parent="BVoDOSrA4ISElf-6tjmI-33">
          <mxGeometry y="26" width="160" height="64" as="geometry" />
        </mxCell>
        <mxCell id="BVoDOSrA4ISElf-6tjmI-35" value="" style="line;strokeWidth=1;fillColor=none;align=left;verticalAlign=middle;spacingTop=-1;spacingLeft=3;spacingRight=3;rotatable=0;labelPosition=right;points=[];portConstraint=eastwest;" vertex="1" parent="BVoDOSrA4ISElf-6tjmI-33">
          <mxGeometry y="90" width="160" height="8" as="geometry" />
        </mxCell>
        <mxCell id="BVoDOSrA4ISElf-6tjmI-36" value="+ method(type): type" style="text;strokeColor=none;fillColor=none;align=left;verticalAlign=top;spacingLeft=4;spacingRight=4;overflow=hidden;rotatable=0;points=[[0,0.5],[1,0.5]];portConstraint=eastwest;" vertex="1" parent="BVoDOSrA4ISElf-6tjmI-33">
          <mxGeometry y="98" width="160" height="26" as="geometry" />
        </mxCell>
        <mxCell id="BVoDOSrA4ISElf-6tjmI-40" style="edgeStyle=orthogonalEdgeStyle;rounded=0;orthogonalLoop=1;jettySize=auto;html=1;exitX=0;exitY=0.5;exitDx=0;exitDy=0;entryX=1;entryY=0.5;entryDx=0;entryDy=0;startArrow=classic;startFill=1;endArrow=none;endFill=0;" edge="1" parent="1" source="BVoDOSrA4ISElf-6tjmI-23" target="BVoDOSrA4ISElf-6tjmI-34">
          <mxGeometry relative="1" as="geometry" />
        </mxCell>
        <mxCell id="BVoDOSrA4ISElf-6tjmI-43" value="1" style="edgeLabel;html=1;align=center;verticalAlign=middle;resizable=0;points=[];" vertex="1" connectable="0" parent="BVoDOSrA4ISElf-6tjmI-40">
          <mxGeometry x="-0.5629" relative="1" as="geometry">
            <mxPoint as="offset" />
          </mxGeometry>
        </mxCell>
        <mxCell id="BVoDOSrA4ISElf-6tjmI-45" value="1,*" style="edgeLabel;html=1;align=center;verticalAlign=middle;resizable=0;points=[];" vertex="1" connectable="0" parent="BVoDOSrA4ISElf-6tjmI-40">
          <mxGeometry x="0.8429" relative="1" as="geometry">
            <mxPoint as="offset" />
          </mxGeometry>
        </mxCell>
        <mxCell id="BVoDOSrA4ISElf-6tjmI-80" style="edgeStyle=orthogonalEdgeStyle;rounded=0;orthogonalLoop=1;jettySize=auto;html=1;exitX=0.5;exitY=0;exitDx=0;exitDy=0;entryX=0.466;entryY=0.987;entryDx=0;entryDy=0;entryPerimeter=0;startArrow=none;startFill=0;endArrow=open;endFill=0;" edge="1" parent="1" source="BVoDOSrA4ISElf-6tjmI-48" target="BVoDOSrA4ISElf-6tjmI-15">
          <mxGeometry relative="1" as="geometry" />
        </mxCell>
        <mxCell id="BVoDOSrA4ISElf-6tjmI-87" value="1" style="edgeLabel;html=1;align=center;verticalAlign=middle;resizable=0;points=[];" vertex="1" connectable="0" parent="BVoDOSrA4ISElf-6tjmI-80">
          <mxGeometry x="0.8491" y="3" relative="1" as="geometry">
            <mxPoint as="offset" />
          </mxGeometry>
        </mxCell>
        <mxCell id="BVoDOSrA4ISElf-6tjmI-88" value="*" style="edgeLabel;html=1;align=center;verticalAlign=middle;resizable=0;points=[];" vertex="1" connectable="0" parent="BVoDOSrA4ISElf-6tjmI-80">
          <mxGeometry x="-0.8127" y="2" relative="1" as="geometry">
            <mxPoint as="offset" />
          </mxGeometry>
        </mxCell>
        <mxCell id="BVoDOSrA4ISElf-6tjmI-48" value="Order" style="swimlane;fontStyle=1;align=center;verticalAlign=top;childLayout=stackLayout;horizontal=1;startSize=26;horizontalStack=0;resizeParent=1;resizeParentMax=0;resizeLast=0;collapsible=1;marginBottom=0;" vertex="1" parent="1">
          <mxGeometry x="230" y="651" width="160" height="144" as="geometry" />
        </mxCell>
        <mxCell id="BVoDOSrA4ISElf-6tjmI-49" value="- id: String&#xa;- createDate: Date&#xa;- note: String&#xa;- status: StatusOfOrder&#xa;- type: TypeOfOrder" style="text;strokeColor=none;fillColor=none;align=left;verticalAlign=top;spacingLeft=4;spacingRight=4;overflow=hidden;rotatable=0;points=[[0,0.5],[1,0.5]];portConstraint=eastwest;" vertex="1" parent="BVoDOSrA4ISElf-6tjmI-48">
          <mxGeometry y="26" width="160" height="84" as="geometry" />
        </mxCell>
        <mxCell id="BVoDOSrA4ISElf-6tjmI-50" value="" style="line;strokeWidth=1;fillColor=none;align=left;verticalAlign=middle;spacingTop=-1;spacingLeft=3;spacingRight=3;rotatable=0;labelPosition=right;points=[];portConstraint=eastwest;" vertex="1" parent="BVoDOSrA4ISElf-6tjmI-48">
          <mxGeometry y="110" width="160" height="8" as="geometry" />
        </mxCell>
        <mxCell id="BVoDOSrA4ISElf-6tjmI-51" value="+ method(type): type" style="text;strokeColor=none;fillColor=none;align=left;verticalAlign=top;spacingLeft=4;spacingRight=4;overflow=hidden;rotatable=0;points=[[0,0.5],[1,0.5]];portConstraint=eastwest;" vertex="1" parent="BVoDOSrA4ISElf-6tjmI-48">
          <mxGeometry y="118" width="160" height="26" as="geometry" />
        </mxCell>
        <mxCell id="BVoDOSrA4ISElf-6tjmI-56" value="PriceItem" style="swimlane;fontStyle=1;align=center;verticalAlign=top;childLayout=stackLayout;horizontal=1;startSize=26;horizontalStack=0;resizeParent=1;resizeParentMax=0;resizeLast=0;collapsible=1;marginBottom=0;" vertex="1" parent="1">
          <mxGeometry x="-210" y="400" width="160" height="144" as="geometry" />
        </mxCell>
        <mxCell id="BVoDOSrA4ISElf-6tjmI-57" value="- name: String&#xa;- price: double" style="text;strokeColor=none;fillColor=none;align=left;verticalAlign=top;spacingLeft=4;spacingRight=4;overflow=hidden;rotatable=0;points=[[0,0.5],[1,0.5]];portConstraint=eastwest;" vertex="1" parent="BVoDOSrA4ISElf-6tjmI-56">
          <mxGeometry y="26" width="160" height="84" as="geometry" />
        </mxCell>
        <mxCell id="BVoDOSrA4ISElf-6tjmI-58" value="" style="line;strokeWidth=1;fillColor=none;align=left;verticalAlign=middle;spacingTop=-1;spacingLeft=3;spacingRight=3;rotatable=0;labelPosition=right;points=[];portConstraint=eastwest;" vertex="1" parent="BVoDOSrA4ISElf-6tjmI-56">
          <mxGeometry y="110" width="160" height="8" as="geometry" />
        </mxCell>
        <mxCell id="BVoDOSrA4ISElf-6tjmI-59" value="+ method(type): type" style="text;strokeColor=none;fillColor=none;align=left;verticalAlign=top;spacingLeft=4;spacingRight=4;overflow=hidden;rotatable=0;points=[[0,0.5],[1,0.5]];portConstraint=eastwest;" vertex="1" parent="BVoDOSrA4ISElf-6tjmI-56">
          <mxGeometry y="118" width="160" height="26" as="geometry" />
        </mxCell>
        <mxCell id="BVoDOSrA4ISElf-6tjmI-63" value="OrderDetail" style="swimlane;fontStyle=1;align=center;verticalAlign=top;childLayout=stackLayout;horizontal=1;startSize=26;horizontalStack=0;resizeParent=1;resizeParentMax=0;resizeLast=0;collapsible=1;marginBottom=0;" vertex="1" parent="1">
          <mxGeometry x="-120" y="680" width="160" height="86" as="geometry" />
        </mxCell>
        <mxCell id="BVoDOSrA4ISElf-6tjmI-64" value="- value: double" style="text;strokeColor=none;fillColor=none;align=left;verticalAlign=top;spacingLeft=4;spacingRight=4;overflow=hidden;rotatable=0;points=[[0,0.5],[1,0.5]];portConstraint=eastwest;" vertex="1" parent="BVoDOSrA4ISElf-6tjmI-63">
          <mxGeometry y="26" width="160" height="26" as="geometry" />
        </mxCell>
        <mxCell id="BVoDOSrA4ISElf-6tjmI-65" value="" style="line;strokeWidth=1;fillColor=none;align=left;verticalAlign=middle;spacingTop=-1;spacingLeft=3;spacingRight=3;rotatable=0;labelPosition=right;points=[];portConstraint=eastwest;" vertex="1" parent="BVoDOSrA4ISElf-6tjmI-63">
          <mxGeometry y="52" width="160" height="8" as="geometry" />
        </mxCell>
        <mxCell id="BVoDOSrA4ISElf-6tjmI-66" value="+ method(type): type" style="text;strokeColor=none;fillColor=none;align=left;verticalAlign=top;spacingLeft=4;spacingRight=4;overflow=hidden;rotatable=0;points=[[0,0.5],[1,0.5]];portConstraint=eastwest;" vertex="1" parent="BVoDOSrA4ISElf-6tjmI-63">
          <mxGeometry y="60" width="160" height="26" as="geometry" />
        </mxCell>
        <mxCell id="BVoDOSrA4ISElf-6tjmI-67" style="edgeStyle=orthogonalEdgeStyle;rounded=0;orthogonalLoop=1;jettySize=auto;html=1;exitX=0;exitY=0.5;exitDx=0;exitDy=0;entryX=0.383;entryY=1.019;entryDx=0;entryDy=0;entryPerimeter=0;startArrow=classic;startFill=1;endArrow=none;endFill=0;" edge="1" parent="1" source="BVoDOSrA4ISElf-6tjmI-64" target="BVoDOSrA4ISElf-6tjmI-59">
          <mxGeometry relative="1" as="geometry" />
        </mxCell>
        <mxCell id="BVoDOSrA4ISElf-6tjmI-72" value="1" style="edgeLabel;html=1;align=center;verticalAlign=middle;resizable=0;points=[];" vertex="1" connectable="0" parent="BVoDOSrA4ISElf-6tjmI-67">
          <mxGeometry x="0.8045" y="1" relative="1" as="geometry">
            <mxPoint as="offset" />
          </mxGeometry>
        </mxCell>
        <mxCell id="BVoDOSrA4ISElf-6tjmI-74" value="*" style="edgeLabel;html=1;align=center;verticalAlign=middle;resizable=0;points=[];" vertex="1" connectable="0" parent="BVoDOSrA4ISElf-6tjmI-67">
          <mxGeometry x="-0.7545" y="1" relative="1" as="geometry">
            <mxPoint as="offset" />
          </mxGeometry>
        </mxCell>
        <mxCell id="BVoDOSrA4ISElf-6tjmI-75" style="edgeStyle=orthogonalEdgeStyle;rounded=0;orthogonalLoop=1;jettySize=auto;html=1;exitX=1;exitY=0.5;exitDx=0;exitDy=0;entryX=0;entryY=0.5;entryDx=0;entryDy=0;startArrow=none;startFill=0;endArrow=open;endFill=0;" edge="1" parent="1" source="BVoDOSrA4ISElf-6tjmI-64" target="BVoDOSrA4ISElf-6tjmI-49">
          <mxGeometry relative="1" as="geometry" />
        </mxCell>
        <mxCell id="BVoDOSrA4ISElf-6tjmI-76" value="1" style="edgeLabel;html=1;align=center;verticalAlign=middle;resizable=0;points=[];" vertex="1" connectable="0" parent="BVoDOSrA4ISElf-6tjmI-75">
          <mxGeometry x="0.7881" y="-2" relative="1" as="geometry">
            <mxPoint as="offset" />
          </mxGeometry>
        </mxCell>
        <mxCell id="BVoDOSrA4ISElf-6tjmI-79" value="1,*" style="edgeLabel;html=1;align=center;verticalAlign=middle;resizable=0;points=[];" vertex="1" connectable="0" parent="BVoDOSrA4ISElf-6tjmI-75">
          <mxGeometry x="-0.7076" y="1" relative="1" as="geometry">
            <mxPoint as="offset" />
          </mxGeometry>
        </mxCell>
        <mxCell id="BVoDOSrA4ISElf-6tjmI-89" style="edgeStyle=orthogonalEdgeStyle;rounded=0;orthogonalLoop=1;jettySize=auto;html=1;exitX=1;exitY=0.5;exitDx=0;exitDy=0;entryX=0;entryY=0.5;entryDx=0;entryDy=0;startArrow=none;startFill=0;endArrow=open;endFill=0;" edge="1" parent="1" source="BVoDOSrA4ISElf-6tjmI-57" target="BVoDOSrA4ISElf-6tjmI-15">
          <mxGeometry relative="1" as="geometry" />
        </mxCell>
        <mxCell id="BVoDOSrA4ISElf-6tjmI-90" value="1" style="edgeLabel;html=1;align=center;verticalAlign=middle;resizable=0;points=[];" vertex="1" connectable="0" parent="BVoDOSrA4ISElf-6tjmI-89">
          <mxGeometry x="0.7321" relative="1" as="geometry">
            <mxPoint as="offset" />
          </mxGeometry>
        </mxCell>
        <mxCell id="BVoDOSrA4ISElf-6tjmI-91" value="1,*" style="edgeLabel;html=1;align=center;verticalAlign=middle;resizable=0;points=[];" vertex="1" connectable="0" parent="BVoDOSrA4ISElf-6tjmI-89">
          <mxGeometry x="-0.8354" y="-1" relative="1" as="geometry">
            <mxPoint as="offset" />
          </mxGeometry>
        </mxCell>
        <mxCell id="BVoDOSrA4ISElf-6tjmI-92" value="&lt;&lt;enumration&gt;&gt;&#xa;StatusOfOrder" style="swimlane;fontStyle=1;align=center;verticalAlign=top;childLayout=stackLayout;horizontal=1;startSize=50;horizontalStack=0;resizeParent=1;resizeParentMax=0;resizeLast=0;collapsible=1;marginBottom=0;fillColor=#f8cecc;strokeColor=#b85450;" vertex="1" parent="1">
          <mxGeometry x="470" y="610" width="160" height="100" as="geometry" />
        </mxCell>
        <mxCell id="BVoDOSrA4ISElf-6tjmI-93" value="PAID&#xa;UNPAID" style="text;strokeColor=none;fillColor=none;align=left;verticalAlign=top;spacingLeft=4;spacingRight=4;overflow=hidden;rotatable=0;points=[[0,0.5],[1,0.5]];portConstraint=eastwest;" vertex="1" parent="BVoDOSrA4ISElf-6tjmI-92">
          <mxGeometry y="50" width="160" height="50" as="geometry" />
        </mxCell>
        <mxCell id="BVoDOSrA4ISElf-6tjmI-96" style="edgeStyle=orthogonalEdgeStyle;rounded=0;orthogonalLoop=1;jettySize=auto;html=1;exitX=0;exitY=0.5;exitDx=0;exitDy=0;entryX=0.001;entryY=0.137;entryDx=0;entryDy=0;entryPerimeter=0;startArrow=none;startFill=0;endArrow=open;endFill=0;" edge="1" parent="1" source="BVoDOSrA4ISElf-6tjmI-51" target="BVoDOSrA4ISElf-6tjmI-2">
          <mxGeometry relative="1" as="geometry">
            <Array as="points">
              <mxPoint x="-320" y="782" />
              <mxPoint x="-320" y="91" />
            </Array>
          </mxGeometry>
        </mxCell>
        <mxCell id="BVoDOSrA4ISElf-6tjmI-97" value="1" style="edgeLabel;html=1;align=center;verticalAlign=middle;resizable=0;points=[];" vertex="1" connectable="0" parent="BVoDOSrA4ISElf-6tjmI-96">
          <mxGeometry x="0.9602" y="-6" relative="1" as="geometry">
            <mxPoint as="offset" />
          </mxGeometry>
        </mxCell>
        <mxCell id="BVoDOSrA4ISElf-6tjmI-98" value="*" style="edgeLabel;html=1;align=center;verticalAlign=middle;resizable=0;points=[];" vertex="1" connectable="0" parent="BVoDOSrA4ISElf-6tjmI-96">
          <mxGeometry x="-0.9777" y="1" relative="1" as="geometry">
            <mxPoint as="offset" />
          </mxGeometry>
        </mxCell>
        <mxCell id="BVoDOSrA4ISElf-6tjmI-99" value="&lt;&lt;enumration&gt;&gt;&#xa;TypeOfOrder" style="swimlane;fontStyle=1;align=center;verticalAlign=top;childLayout=stackLayout;horizontal=1;startSize=50;horizontalStack=0;resizeParent=1;resizeParentMax=0;resizeLast=0;collapsible=1;marginBottom=0;fillColor=#f8cecc;strokeColor=#b85450;" vertex="1" parent="1">
          <mxGeometry x="470" y="750" width="160" height="100" as="geometry" />
        </mxCell>
        <mxCell id="BVoDOSrA4ISElf-6tjmI-100" value="ADMISSION&#xa;PAY" style="text;strokeColor=none;fillColor=none;align=left;verticalAlign=top;spacingLeft=4;spacingRight=4;overflow=hidden;rotatable=0;points=[[0,0.5],[1,0.5]];portConstraint=eastwest;" vertex="1" parent="BVoDOSrA4ISElf-6tjmI-99">
          <mxGeometry y="50" width="160" height="50" as="geometry" />
        </mxCell>
      </root>
    </mxGraphModel>
  </diagram>
</mxfile>
